<svg id="Layer_1" data-name="Layer 1" xmlns="http://www.w3.org/2000/svg" viewBox="0 0 141.73 141.73"><defs><style>.cls-1{fill:#e83764;}.cls-2{fill:#fff;}</style></defs><path class="cls-1" d="M14.42,105.76c.23-23.4,6.76-44.88,20.71-63.77C45.29,28.24,64.71,23.42,80.25,30.32A24,24,0,0,1,94.93,49.65c.85,5.77-1.54,11-4.54,15.95-4.6,7.55-11.37,13.06-17.7,19A45.8,45.8,0,0,0,58.47,110c-.6,3.16-.87,6.38-1.49,9.54a32.53,32.53,0,0,1-7.5,14.95c-6.32,7.36-20.13,7.12-26.82-.49a33.29,33.29,0,0,1-8.23-21.26C14.34,110.41,14.42,108.09,14.42,105.76Z"/><path class="cls-1" d="M128.7,28.37c-.07,7.82-6.45,15.22-15.3,17.76C102.06,49.39,95.89,43.69,98.14,32c1.48-7.68,5.08-13.84,12.81-16.57C120.05,12.23,128.8,18.71,128.7,28.37Z"/><path class="cls-2" d="M78.86,53.36c1.34-1.83,2.57-3.47,3.75-5.14,1.88-2.64,3.78-1.92,6-.32s2.07,3.21.51,5.25c-3.16,4.12-6,8.48-9.3,12.51-1.74,2.06-2.59,3.73-4.45,2.69a8.8,8.8,0,0,1-4.12-5.07c-.88-3.94-.61-8.13-1.23-12.16a19.56,19.56,0,0,0-2.46-6.84c-.7-1.19-2.8-2.57-4.12-1.4-1.09,1-1.58,1.81-1.39,4.29.25,3.08-.83,6-3.48,7a3.09,3.09,0,0,1-3.25-1.4c-4.08-6-1.36-14.43,5.67-18.21,5.68-3.05,12.78-.29,15.31,6.5C77.67,44.79,78,48.91,78.86,53.36Z"/><path class="cls-2" d="M33.3,98.64a17.27,17.27,0,0,0,5.91,3.09c1.34.35,3.49.3,4.42-1.06a4.7,4.7,0,0,0,.24-4.13A5.76,5.76,0,0,1,47,89.82c2.79-1.21,3.66,1.12,4.56,2.83,4,7.68-2.65,18.16-11.54,18.27-8,.1-18.49-7.92-20.46-15.6-2.25-8.8,5.73-17.61,14.49-15.9,1.93.38,4.36.64,4.07,3.6-.28,2.73-3.16,4.82-5.66,4.8-1.51,0-3.08-.31-4.35,1.37-.75,1-.24,3.37.54,4.59A16.53,16.53,0,0,0,33.3,98.64Z"/><path class="cls-1" d="M90.09,28c-4.17.07-7.46-4-7-8.79A15.54,15.54,0,0,1,90.06,7.41c5.26-3.54,10.89-1.23,12.19,5C103.68,19.17,96.88,27.92,90.09,28Z"/><path class="cls-1" d="M76.39,1.88c5.61,0,7.43,3.66,7.08,8.85a13.53,13.53,0,0,1-5.21,10.19,6.76,6.76,0,0,1-7.11,1.14c-2.52-1.09-3.64-3.32-3.88-6-.45-4.89,1-9,4.92-12A9.53,9.53,0,0,1,76.39,1.88Z"/><path class="cls-1" d="M55.51,6.14c3.42-3.33,7.84-2.21,9.67,2.21s0,10.93-3.64,13.38S54,23.08,52.46,19a9.59,9.59,0,0,1-1-4.38A12.12,12.12,0,0,1,55.51,6.14Z"/><path class="cls-1" d="M50.41,19.52A9.06,9.06,0,0,1,47.51,26,7.47,7.47,0,0,1,42.42,28c-1.84-.12-3.38-1.82-4.1-4.56A12.31,12.31,0,0,1,38.78,17c1.18-3.68,4.24-5.8,6.81-5.29C48.44,12.3,50.41,14.43,50.41,19.52Z"/><path class="cls-2" d="M38.93,61.59l-.41.54a11.87,11.87,0,0,0,2.39,16.59l9.23,6.92a11.86,11.86,0,0,0,16.59-2.38l.41-.55a11.86,11.86,0,0,0-2.38-16.59l-9.24-6.91A11.86,11.86,0,0,0,38.93,61.59ZM60.47,71.85a4.7,4.7,0,0,1,1,6.58L61,79a4.71,4.71,0,0,1-6.58,1L45.19,73a4.71,4.71,0,0,1-.94-6.58l.41-.55a4.71,4.71,0,0,1,6.58-.94Z"/></svg>