<svg id="Layer_1" data-name="Layer 1" xmlns="http://www.w3.org/2000/svg" viewBox="0 0 141.73 141.73"><defs><style>.cls-1{fill:#14a85a;}.cls-2{fill:#1aa959;}</style></defs><path class="cls-1" d="M82.4,2.41C87.65,4.23,93.39,5.24,98,8c11.87,7.18,17.12,18.22,16.3,32.13a3.81,3.81,0,0,0,1.18,3C123.14,47.69,127,54.68,128.45,63c3,17.21-5.28,29.58-22.66,34.46a26,26,0,0,1-2.57.63c-4.41.74-8.25,1.56-10.71,6.44-2.13,4.2-7,5.87-11.87,6a5,5,0,0,1-5.32-4.77,5.41,5.41,0,0,1,4.58-5.9c4.13-.71,5-1.52,5.72-5.47.71-3.75,2-4.62,5.93-5.26,5.29-.89,10.8-1.52,15.72-3.5C119.1,80.86,122.33,64.3,113.46,55a12.07,12.07,0,0,0-5.82-3c-4.68-1.06-6.45-3.64-5.08-8.3C106.35,30.86,98.94,17,86.4,14.08A34.61,34.61,0,0,0,65,15.47a24.44,24.44,0,0,0-8.22,6.36C54.34,24.51,54,28,55.65,31.49c1.46,3.1.94,5.37-1.39,7.09a5.2,5.2,0,0,1-7-.26c-4.77-4.11-10-5-15.54-2a16.59,16.59,0,0,0-9.29,15.63,26.36,26.36,0,0,0,7.1,18,15.42,15.42,0,0,0,10,5.19c3.7.39,5.61,2.86,5.23,6.47-.31,3-2.25,4.45-6,4.16-8-.61-13.94-4.84-18.93-10.75C10.66,64.11,8.74,49.1,15.47,37.89c5.9-9.83,14.5-15,26.32-13.7.76.08,1.52.1,2.25.15C47.61,11.92,56.67,4.64,70.42,3A24.33,24.33,0,0,0,73,2.41Z"/><path class="cls-2" d="M62.86,81.63v-2.5q0-25.69,0-51.39c0-3.76,1.62-5.79,4.69-5.87s5,2.05,5,5.88q0,24.51,0,49v3c5.85-2.62,11.34-4.92,16.69-7.52a14.22,14.22,0,0,0,7-7.63c1.2-2.93,3.59-3.81,6.18-2.62,2.4,1.11,3,3,1.78,6-3,7.26-9,11.18-15.81,14.18-4,1.72-7.89,3.49-11.72,5.46-3,1.54-4.42,3.92-4.29,7.63.39,11.6.41,23.22.53,34.82a29.18,29.18,0,0,1-.39,5.29c-.5,2.91-2.56,4.38-5.47,4.16-2.55-.2-4.11-1.86-4.15-4.76q-.15-9-.09-18a53.66,53.66,0,0,0-8.38-29c-3.77-6.1-7.71-12.11-11.22-18.36C40,63.54,37.89,57.3,38,50.52c0-2.89,1.77-4.71,4.47-4.82a4.71,4.71,0,0,1,5.06,4.36c.41,8.06,3.82,15,8,21.55C57.75,75,60,78.43,62.22,81.83Z"/></svg>