<svg id="Layer_1" data-name="Layer 1" xmlns="http://www.w3.org/2000/svg" viewBox="0 0 141.73 141.73"><defs><style>.cls-1{fill:#706f6f;}</style></defs><path class="cls-1" d="M70.6,37.3q20.63,0,41.26,0c1.12,0,2.19,0,2.58,1.34a2.11,2.11,0,0,1-1.29,2.74c-.41.22-.63,1.07-.69,1.66-.79,7.18-1.53,14.38-2.27,21.57Q108.5,81,106.82,97.51c-.93,9.19-1.85,18.39-2.68,27.59-.65,7.23-6.37,14.5-15.23,14.41-12.21-.13-24.43,0-36.64,0a14.7,14.7,0,0,1-14-9.85c-1.65-4.29-1.62-8.83-2.07-13.29Q34,95.3,32,74.23q-1.52-15.39-3-30.79c-.1-1-.08-1.88-1.43-2.29-.57-.17-1.11-1.47-1.1-2.26,0-1.15,1-1.59,2.16-1.59,5.1,0,10.2,0,15.3,0H70.6ZM55.06,125.61h0c-.12-1.59-.27-3.19-.37-4.78q-2.16-33.61-4.3-67.24c-.21-3.26-2.11-5.2-4.93-5.06-3.57.17-5.29,2-5.09,5.58.35,6.45.81,12.89,1.22,19.34q1.18,18.45,2.35,36.9c.38,5.91.72,11.83,1.2,17.73.25,3.07,2.33,4.56,5.57,4.28a4.5,4.5,0,0,0,4.39-5.14C55.11,126.67,55.09,126.14,55.06,125.61Zm29.26-1.73h0c-.1,1.24-.16,2.49-.28,3.73-.29,3.08,1.35,5.27,4.16,5.54,3.57.34,5.62-1.2,5.88-4.56q1.51-19.59,3-39.2c.86-11.35,1.69-22.71,2.61-34.06.27-3.36-1.24-5.51-4.42-5.85s-5.37,1.39-5.64,4.86q-.93,11.88-1.82,23.76Q86,101,84.32,123.88ZM74.36,91h0V67.64c0-4.62,0-9.25,0-13.88a4.4,4.4,0,0,0-4.66-4.7c-3.64-.1-5.41,1.76-5.4,5.63q0,26.52,0,53c0,6.82,0,13.64,0,20.46,0,3.06,2,4.85,5.14,4.86a4.61,4.61,0,0,0,4.91-4.73c0-.71,0-1.42,0-2.13Z"/><path class="cls-1" d="M28.15,15.63c.43-2.44.75-4.79,1.27-7.08C30,6,32,4.81,34.67,5.3L64,10.66l2.32.37c-.65-2.78-1.25-5.4-1.86-8,3.08-1.29,8.72-.51,14.8,2.08l-3.45,7.72,12.68,2.35,22.88,4.22c2.73.51,4.16,2.27,3.86,5-.24,2.29-.75,4.54-1.17,7Z"/></svg>