<svg id="Layer_1" data-name="Layer 1" xmlns="http://www.w3.org/2000/svg" viewBox="0 0 141.73 141.73"><defs><style>.cls-1{fill:#36a9e1;}.cls-2{fill:#fff;}</style></defs><path class="cls-1" d="M116.76,74.47c-7.57-26.31-23-48-40.59-68.37-2.42-2.8-3.82-4.18-5.3-4.22S68,3.3,65.57,6.1C48,26.49,32.54,48.16,25,74.47c-3.76,13.06-4.53,26.18,1.94,38.65,8.93,17.18,25.79,27.17,44,26.72,18.16.45,35-9.54,43.95-26.72C121.3,100.65,120.52,87.53,116.76,74.47Z"/><path class="cls-2" d="M50.19,97c-.1-.13-.18-.31-.31-.37-1.08-.47-5.88,1.11-6.49,2.13A3,3,0,1,1,41,94.4a.85.85,0,0,1,.32,0c2.71,1.62,4.46-.84,6.57-1.64,1.13-.42-.11-1.55.17-2.33-.09-2.16,0-4.33,0-6.49a4.4,4.4,0,0,0-4.34-1.44A3,3,0,0,1,41.4,77a2.83,2.83,0,0,1,3.9,1.58c.54,1.58,1.81,1.34,2.89,1.5s1-1,1.24-1.61a19.89,19.89,0,0,1,2.23-3.95,1.25,1.25,0,0,0-.09-2,20.16,20.16,0,0,1-1.5-1.92c-.76-1-1.4-1.89-3-1.81-2,.1-3.43-1.9-3.26-3.9a3.62,3.62,0,0,1,3.8-3.26,3.38,3.38,0,0,1,3.35,3.65,2.81,2.81,0,0,0,1.35,2.82c3.18,2.62,3.16,2.63,6.33,0a.84.84,0,0,0,.26-1.1c-.49-1.49-1-3-1.39-4.51-.17-.61-.6-.82-1.08-1.1a3.41,3.41,0,0,1-1.18-4.92,3.47,3.47,0,0,1,4.88-.85,3.38,3.38,0,0,1,.53,5,1.22,1.22,0,0,0-.11,1.8,6.16,6.16,0,0,1,.4.71c1.85,3.27,1.84,3.25,5.44,2.23.69-.19.79-.61.86-1.17.19-1.46.38-2.91.61-4.35a2.24,2.24,0,0,0-.6-2.05,2.89,2.89,0,0,1,.34-4.2,3.05,3.05,0,0,1,4.13.27,2.86,2.86,0,0,1-.11,4.1,2.31,2.31,0,0,0-.78,2.28c0,.27,0,.54.06.81.32,4,.33,4,4.35,4.74.45.07.85.22,1.1-.3.6-1.26,1.8-2.2,1.29-4A2.71,2.71,0,0,1,80,58.24a3,3,0,0,1,1.31,5.83,3.63,3.63,0,0,0-2,2.89c0,.42.36.5.62.67,2.68,1.76,2.68,1.76,5.3-.22l1.56-1.18c1.23-.9,2.4-1.58,2.11-3.64s1.78-3.56,3.88-3.46a3.73,3.73,0,0,1-.19,7.46,2,2,0,0,0-1.9.84c-1.21,1.47-2.45,2.9-3.7,4.34-.42.47-.87.93-.2,1.49s.79,2.26,2.28,1.85,2.92-.56,3.31-2.66,2.82-2.87,4.74-2.13a3.78,3.78,0,0,1,2.17,4.82,3.83,3.83,0,0,1-4.82,2.21,5.12,5.12,0,0,0-4.16,1.18c-.27.33-.12.59,0,.9.25.77.51,1.55.7,2.33.64,2.66.63,2.66,3.25,3.07.81.13,1.62.18,2.42.34a1.65,1.65,0,0,0,1.7-.58,3.28,3.28,0,0,1,5,0,3.37,3.37,0,1,1-5.21,4.27,1.64,1.64,0,0,0-1.65-.7c-1.45.14-3.09-.14-4.33.45-1.44.67-.71,2.61-1.19,3.93-.23.62-1,1.63-.18,2,1.17.52,2.24,1.78,3.86.91a3.33,3.33,0,0,1,4.78,1.59,3.38,3.38,0,0,1-2,4.53A3.29,3.29,0,0,1,93,99.24c-.52-1.83-2.14-1-3.2-1.5-.78-.39-1.12.28-1.49.83-1.72,2.59-1.74,2.6.28,5.07.9,1.11,1.56,2.39,3.26,2.7,1,.19,1.37,1.31,1.16,2.4a2.1,2.1,0,0,1-2,1.83,2,2,0,0,1-2.34-1.6c-.48-2.67-3.11-3.24-4.6-4.91-.28-.31-.57.06-.84.22-3.14,2-3.21,2-2,5.62.39,1.14,0,2.87,1.91,3.18a7.52,7.52,0,0,0,0,4.79c.11.33-.12.47-.33.63l-.43.31c-.59.21-1.36-.65-1.84.28-2.92-.76-3.61-3.23-2-5.75,1.23-1.88-1.15-3-1.58-4.57-.24-.87-.9-.77-1.58-.55A18,18,0,0,1,71,109a1.23,1.23,0,0,0-1.31,1.1q-.91,3.47-2,6.88a1.6,1.6,0,0,0,.38,1.6,3.39,3.39,0,0,1-.65,5,3.46,3.46,0,0,1-4.76-.85,3.28,3.28,0,0,1,1.11-4.89,1.81,1.81,0,0,0,1-1.66c.14-2.17.26-4.33.44-6.5.07-.8-.2-1.14-1-1.34a12.72,12.72,0,0,1-3.35-1.19c-1.45-.86-2.44-.73-3.32.73A12.58,12.58,0,0,1,56,109.71a3.29,3.29,0,0,0-1,2.57,3.28,3.28,0,0,1-3.51,3.27A3.5,3.5,0,0,1,48.08,112a3.32,3.32,0,0,1,3.54-3.26,1.84,1.84,0,0,0,2.31-1.29c.44-1.11,1.5-2.11,1.54-3.18s-1.5-1.67-2.21-2.61a14.85,14.85,0,0,1-2.07-2.9A3.27,3.27,0,0,0,50.19,97Z"/></svg>